# xmcd
#
# Track frame offsets: 
#        150
#        18658
#        35131
#        52333
#        70629
#        85442
#        101146
#        120531
#        137121
#        150502
#        168830
#        183443
#        199787
#        215299
#        227100
#
# Disc length: 3259 seconds
#
# Revision: 6
# Processed by: cddbd v1.5.2PL0 Copyright (c) Steve Scherf et al.
# Submitted via: ExactAudioCopy v0.99pb5
#
DISCID=d50cb90f
DTITLE=Various Artist - Kneipen Hits - Disco Fox - CD 2
DYEAR=2001
DGENRE=Pop
TTITLE0=Caught In The Act - Love is everywhere
TTITLE1=Mike Oldfield - Moonlight shadow
TTITLE2=Nick Straker Band - A walk in the park
TTITLE3=Kelly Marie - Feels like I'm in love
TTITLE4=K.W.S. - Please don't go
TTITLE5=Peter Kent - Stop 'n' go
TTITLE6=Desireless - Voyage voyage
TTITLE7=Jam Tronik - Another day in paradise
TTITLE8=Scotch - Take me up
TTITLE9=Billy Ocean - Caribbean queen (no more love on the run)
TTITLE10=Harpo - Horoscope
TTITLE11=Grant Miller - Stranger in my life
TTITLE12=Clout - Substitute
TTITLE13=Kincade - Dreams are ten a penny (Jenny Jenny)
TTITLE14=Suzi Quatro - If you can't give me love
EXTD=
EXTT0=
EXTT1=
EXTT2=
EXTT3=
EXTT4=
EXTT5=
EXTT6=
EXTT7=
EXTT8=
EXTT9=
EXTT10=
EXTT11=
EXTT12=
EXTT13=
EXTT14=
PLAYORDER=
